<svg xmlns='http://www.w3.org/2000/svg' viewBox="0 0 407 234" fill="none"><path d="M9.36926 94.0703C18.4779 51.1039 52.3052 17.6935 95.3813 9.11847C138.457 0.543424 182.501 18.4523 207.369 54.6549" stroke="white" stroke-width="13" stroke-linecap="round" stroke-linejoin="round"></path><path d="M207.431 178.932C180.206 218.622 130.315 235.967 84.3405 221.724C38.3663 207.482 7.01816 164.969 7 116.839H26.8462C26.8203 78.2392 51.9358 44.1215 88.8007 32.6779C125.666 21.2344 165.686 35.1328 187.523 66.9626" stroke="#D32736" stroke-width="13" stroke-linecap="round" stroke-linejoin="round"></path><path d="M187.584 166.655C168.026 195.165 133.604 209.604 99.559 203.579C65.5145 197.553 38.1386 172.176 29.5537 138.686" stroke="white" stroke-width="13" stroke-linecap="round" stroke-linejoin="round"></path><path d="M103.708 90.3314C104.518 90.3314 105.169 90.5293 105.661 90.9251C106.182 91.3209 106.442 91.9146 106.442 92.7062C106.442 93.1586 106.355 93.8654 106.182 94.8266C106.008 95.7596 105.791 96.636 105.531 97.4559C105.444 97.7951 105.328 98.1344 105.184 98.4737C105.039 98.8129 104.836 99.1946 104.576 99.6187C104.315 100.014 103.983 100.481 103.578 101.018C103.173 101.555 102.652 102.206 102.015 102.969L74.1078 136.259H97.1976C97.6027 136.259 97.8775 136.4 98.0222 136.683C98.1958 136.966 98.2826 137.39 98.2826 137.955C98.2826 138.182 98.2681 138.521 98.2392 138.973C98.2103 139.397 98.1379 139.892 98.0222 140.457C97.9354 140.995 97.8197 141.546 97.675 142.111C97.5303 142.648 97.3567 143.157 97.1542 143.638C96.9516 144.09 96.6912 144.472 96.3729 144.783C96.0836 145.066 95.7653 145.207 95.4181 145.207H62.3025C61.2608 145.207 60.5085 144.953 60.0456 144.444C59.5537 143.935 59.3077 143.299 59.3077 142.535C59.3077 142.309 59.3367 141.998 59.3945 141.602C59.4235 141.178 59.4958 140.754 59.6116 140.33C59.6984 139.878 59.7996 139.44 59.9154 139.016C60.0022 138.563 60.089 138.196 60.1758 137.913C60.2915 137.602 60.4217 137.291 60.5664 136.98C60.7111 136.669 60.9136 136.316 61.174 135.92C61.4634 135.524 61.8106 135.057 62.2157 134.52C62.6207 133.983 63.1416 133.333 63.7781 132.57L91.8157 99.1946H70.7224C69.7965 99.1946 69.3336 98.5868 69.3336 97.3711C69.3336 97.2014 69.348 96.9046 69.377 96.4805C69.4348 96.0282 69.5072 95.5475 69.594 95.0386C69.6808 94.5015 69.7965 93.9643 69.9412 93.4271C70.1148 92.8617 70.3173 92.3528 70.5488 91.9005C70.7803 91.4481 71.0552 91.0806 71.3735 90.7979C71.7207 90.4869 72.1113 90.3314 72.5453 90.3314H103.708Z" fill="white"></path><path d="M148.846 91.9429C148.846 92.1125 148.817 92.4093 148.759 92.8334C148.73 93.2575 148.672 93.7381 148.585 94.2753C148.499 94.7842 148.383 95.3214 148.238 95.8868C148.093 96.4522 147.905 96.9753 147.674 97.4559C147.471 97.9082 147.211 98.2899 146.893 98.6009C146.603 98.9119 146.285 99.0674 145.938 99.0674H125.886L123.108 112.468H140.122C140.527 112.468 140.816 112.61 140.99 112.892C141.164 113.175 141.25 113.571 141.25 114.08C141.25 114.278 141.222 114.589 141.164 115.013C141.135 115.409 141.077 115.875 140.99 116.412C140.903 116.921 140.788 117.444 140.643 117.981C140.498 118.518 140.31 119.013 140.079 119.466C139.876 119.918 139.63 120.285 139.341 120.568C139.051 120.851 138.733 120.992 138.386 120.992H121.416L118.204 136.471H138.516C138.863 136.471 139.124 136.627 139.297 136.938C139.471 137.22 139.558 137.644 139.558 138.21C139.558 138.408 139.543 138.719 139.514 139.143C139.485 139.567 139.413 140.047 139.297 140.585C139.211 141.094 139.095 141.617 138.95 142.154C138.805 142.691 138.617 143.2 138.386 143.68C138.183 144.133 137.937 144.5 137.648 144.783C137.359 145.066 137.026 145.207 136.65 145.207H108.439C107.976 145.207 107.556 145.151 107.18 145.037C106.804 144.896 106.486 144.684 106.225 144.401C105.994 144.09 105.835 143.723 105.748 143.299C105.661 142.846 105.675 142.309 105.791 141.687L115.6 93.8512C115.86 92.6073 116.381 91.7167 117.162 91.1795C117.944 90.6141 118.812 90.3314 119.767 90.3314H147.717C148.47 90.3314 148.846 90.8685 148.846 91.9429Z" fill="white"></path><path d="M214.252 143.723C214.166 144.006 214.035 144.26 213.862 144.486C213.688 144.712 213.384 144.896 212.95 145.037C212.545 145.179 211.981 145.278 211.258 145.334C210.534 145.419 209.637 145.462 208.567 145.462C207.438 145.462 206.527 145.419 205.832 145.334C205.138 145.278 204.603 145.179 204.227 145.037C203.85 144.896 203.604 144.712 203.489 144.486C203.402 144.26 203.387 144.006 203.445 143.723L212.56 99.0674H212.473L186.996 143.68C186.649 144.387 185.969 144.868 184.956 145.122C183.972 145.348 182.569 145.462 180.746 145.462C178.865 145.462 177.505 145.306 176.666 144.995C175.856 144.656 175.437 144.246 175.408 143.765L168.811 99.025H168.724L159.566 143.723C159.508 144.006 159.378 144.26 159.175 144.486C159.002 144.712 158.698 144.896 158.264 145.037C157.859 145.179 157.295 145.278 156.571 145.334C155.877 145.419 154.98 145.462 153.88 145.462C152.781 145.462 151.884 145.419 151.189 145.334C150.495 145.278 149.96 145.179 149.584 145.037C149.207 144.896 148.962 144.712 148.846 144.486C148.73 144.26 148.716 144.006 148.802 143.723L158.785 94.8266C158.929 94.1198 159.146 93.4837 159.436 92.9182C159.754 92.3528 160.13 91.8863 160.564 91.5188C161.027 91.123 161.548 90.8261 162.127 90.6282C162.705 90.4303 163.328 90.3314 163.993 90.3314H171.111C172.384 90.3314 173.469 90.4445 174.366 90.6706C175.263 90.8685 176.001 91.2219 176.58 91.7308C177.158 92.2397 177.592 92.9041 177.882 93.724C178.2 94.5439 178.417 95.5334 178.533 96.6925L183.958 129.347H184.175L203.445 96.6925C204.024 95.5899 204.603 94.6428 205.181 93.8512C205.76 93.0313 206.397 92.3669 207.091 91.858C207.814 91.3209 208.61 90.9392 209.478 90.713C210.346 90.4586 211.373 90.3314 212.56 90.3314H220.632C221.356 90.3314 221.978 90.4303 222.499 90.6282C223.02 90.8261 223.425 91.123 223.714 91.5188C224.032 91.8863 224.22 92.3528 224.278 92.9182C224.365 93.4554 224.351 94.0774 224.235 94.7842L214.252 143.723Z" fill="white"></path><path d="M268.288 92.1125C268.288 92.2821 268.259 92.5931 268.201 93.0455C268.172 93.4695 268.1 93.9502 267.984 94.4873C267.897 95.0245 267.781 95.5899 267.637 96.1836C267.492 96.7491 267.304 97.2862 267.072 97.7951C266.87 98.2758 266.624 98.6716 266.335 98.9826C266.045 99.2936 265.713 99.449 265.336 99.449H246.977L243.939 114.207H261.213C261.618 114.207 261.908 114.362 262.081 114.673C262.255 114.984 262.342 115.394 262.342 115.903C262.342 116.101 262.313 116.426 262.255 116.879C262.197 117.303 262.11 117.783 261.994 118.321C261.908 118.829 261.777 119.381 261.604 119.974C261.459 120.54 261.271 121.063 261.04 121.544C260.837 121.996 260.591 122.378 260.302 122.689C260.012 123 259.68 123.155 259.304 123.155H242.16L237.993 143.638C237.935 143.949 237.791 144.218 237.559 144.444C237.328 144.67 236.966 144.854 236.474 144.995C236.011 145.136 235.404 145.249 234.651 145.334C233.899 145.419 232.973 145.462 231.874 145.462C230.745 145.462 229.819 145.419 229.096 145.334C228.401 145.249 227.852 145.136 227.447 144.995C227.041 144.854 226.767 144.67 226.622 144.444C226.477 144.218 226.448 143.949 226.535 143.638L236.691 93.8512C236.952 92.6073 237.472 91.7167 238.254 91.1795C239.035 90.6141 239.903 90.3314 240.858 90.3314H267.159C267.651 90.3314 267.955 90.4869 268.071 90.7979C268.215 91.1088 268.288 91.5471 268.288 92.1125Z" fill="white"></path><path d="M293.895 124.385L289.989 143.723C289.902 144.006 289.743 144.26 289.511 144.486C289.28 144.712 288.918 144.896 288.426 145.037C287.963 145.179 287.356 145.278 286.603 145.334C285.851 145.419 284.925 145.462 283.826 145.462C282.726 145.462 281.815 145.419 281.091 145.334C280.368 145.278 279.804 145.179 279.399 145.037C279.022 144.896 278.762 144.712 278.617 144.486C278.502 144.26 278.473 144.006 278.531 143.723L282.437 124.385L273.236 94.4873C272.917 93.4978 272.715 92.7062 272.628 92.1125C272.57 91.5188 272.715 91.0806 273.062 90.7979C273.409 90.4869 274.017 90.289 274.885 90.2041C275.753 90.1193 276.983 90.0769 278.574 90.0769C279.789 90.0769 280.744 90.1052 281.438 90.1617C282.162 90.19 282.726 90.2748 283.131 90.4162C283.536 90.5575 283.811 90.7696 283.956 91.0523C284.129 91.3067 284.274 91.646 284.39 92.0701L288.166 105.259C288.6 106.842 288.976 108.355 289.294 109.797C289.641 111.21 289.945 112.694 290.206 114.249H290.292C291.103 112.723 291.942 111.224 292.81 109.754C293.678 108.284 294.604 106.814 295.587 105.344L304.572 91.9429C304.803 91.5753 305.049 91.2785 305.309 91.0523C305.57 90.7979 305.932 90.5999 306.395 90.4586C306.857 90.3172 307.465 90.2183 308.217 90.1617C308.999 90.1052 310.04 90.0769 311.342 90.0769C313.021 90.0769 314.294 90.1335 315.162 90.2466C316.059 90.3314 316.637 90.5434 316.898 90.8827C317.187 91.1937 317.173 91.646 316.854 92.2397C316.565 92.8052 316.088 93.5544 315.422 94.4873L293.895 124.385Z" fill="white"></path><path d="M360.343 102.29C360.343 104.1 360.083 105.895 359.562 107.676C359.07 109.457 358.274 111.139 357.175 112.723C356.075 114.306 354.643 115.734 352.878 117.006C351.142 118.278 349.015 119.296 346.498 120.059C347.887 120.596 349.044 121.671 349.97 123.282C350.925 124.865 351.706 127.042 352.314 129.813L354.614 140.966C354.73 141.588 354.817 142.154 354.874 142.663C354.961 143.143 355.005 143.553 355.005 143.892C355.005 144.175 354.903 144.415 354.701 144.613C354.527 144.811 354.194 144.981 353.703 145.122C353.211 145.235 352.531 145.32 351.663 145.377C350.824 145.433 349.753 145.462 348.451 145.462C347.236 145.462 346.252 145.419 345.5 145.334C344.776 145.278 344.212 145.179 343.807 145.037C343.402 144.868 343.127 144.656 342.982 144.401C342.867 144.147 342.78 143.85 342.722 143.511L340.552 131.34C340.32 129.926 340.002 128.682 339.597 127.608C339.221 126.534 338.729 125.643 338.121 124.936C337.514 124.201 336.761 123.664 335.864 123.325C334.996 122.957 333.955 122.773 332.739 122.773H329.181L324.884 143.723C324.826 144.006 324.681 144.26 324.45 144.486C324.218 144.712 323.857 144.896 323.365 145.037C322.902 145.179 322.294 145.278 321.542 145.334C320.79 145.419 319.864 145.462 318.764 145.462C317.665 145.462 316.753 145.419 316.03 145.334C315.335 145.278 314.786 145.179 314.38 145.037C313.975 144.896 313.701 144.726 313.556 144.529C313.411 144.302 313.382 144.034 313.469 143.723L323.712 93.8512C323.943 92.6073 324.45 91.7167 325.231 91.1795C326.041 90.6141 326.967 90.3314 328.009 90.3314H343.069C345.702 90.3314 348.075 90.5717 350.187 91.0523C352.328 91.5329 354.151 92.268 355.656 93.2575C357.16 94.247 358.318 95.491 359.128 96.9894C359.938 98.4878 360.343 100.255 360.343 102.29ZM348.104 104.368C348.104 103.577 347.959 102.842 347.67 102.163C347.409 101.485 346.975 100.905 346.368 100.424C345.76 99.9155 344.964 99.5339 343.981 99.2794C343.026 98.9967 341.868 98.8553 340.508 98.8553H334.042L330.873 114.419H336.298C338.469 114.419 340.306 114.122 341.81 113.528C343.315 112.906 344.53 112.115 345.456 111.154C346.382 110.192 347.048 109.132 347.453 107.973C347.887 106.786 348.104 105.584 348.104 104.368Z" fill="white"></path><path d="M407 91.9429C407 92.1125 406.971 92.4093 406.913 92.8334C406.884 93.2575 406.826 93.7381 406.74 94.2753C406.653 94.7842 406.537 95.3214 406.392 95.8868C406.248 96.4522 406.06 96.9753 405.828 97.4559C405.626 97.9082 405.365 98.2899 405.047 98.6009C404.758 98.9119 404.439 99.0674 404.092 99.0674H384.04L381.263 112.468H398.276C398.681 112.468 398.971 112.61 399.144 112.892C399.318 113.175 399.405 113.571 399.405 114.08C399.405 114.278 399.376 114.589 399.318 115.013C399.289 115.409 399.231 115.875 399.144 116.412C399.058 116.921 398.942 117.444 398.797 117.981C398.652 118.518 398.464 119.013 398.233 119.466C398.03 119.918 397.784 120.285 397.495 120.568C397.206 120.851 396.887 120.992 396.54 120.992H379.57L376.358 136.471H396.67C397.018 136.471 397.278 136.627 397.452 136.938C397.625 137.22 397.712 137.644 397.712 138.21C397.712 138.408 397.698 138.719 397.669 139.143C397.64 139.567 397.567 140.047 397.452 140.585C397.365 141.094 397.249 141.617 397.104 142.154C396.96 142.691 396.772 143.2 396.54 143.68C396.338 144.133 396.092 144.5 395.802 144.783C395.513 145.066 395.18 145.207 394.804 145.207H366.593C366.13 145.207 365.71 145.151 365.334 145.037C364.958 144.896 364.64 144.684 364.379 144.401C364.148 144.09 363.989 143.723 363.902 143.299C363.815 142.846 363.83 142.309 363.945 141.687L373.754 93.8512C374.015 92.6073 374.535 91.7167 375.317 91.1795C376.098 90.6141 376.966 90.3314 377.921 90.3314H405.872C406.624 90.3314 407 90.8685 407 91.9429Z" fill="white"></path></svg>