<svg xmlns='http://www.w3.org/2000/svg' viewBox="0 0 407 234" fill="none"><path d="M9.36938 94.0703C18.478 51.1039 52.3054 17.6935 95.3814 9.11847C138.457 0.543425 182.501 18.4523 207.369 54.6549" stroke="#231F20" stroke-width="13" stroke-linecap="round" stroke-linejoin="round"></path><path d="M207.431 178.932C180.206 218.622 130.315 235.967 84.3405 221.724C38.3663 207.482 7.01816 164.969 7 116.839H26.8462C26.8203 78.2392 51.9358 44.1215 88.8007 32.6779C125.666 21.2344 165.686 35.1328 187.523 66.9626" stroke="#D32736" stroke-width="13" stroke-linecap="round" stroke-linejoin="round"></path><path d="M187.584 166.655C168.026 195.165 133.604 209.604 99.559 203.579C65.5145 197.553 38.1386 172.176 29.5537 138.686" stroke="#231F20" stroke-width="13" stroke-linecap="round" stroke-linejoin="round"></path><path d="M103.248 90.4848C104.059 90.4848 104.711 90.6837 105.204 91.0815C105.725 91.4793 105.986 92.076 105.986 92.8716C105.986 93.3262 105.899 94.0366 105.725 95.0026C105.551 95.9403 105.334 96.8211 105.073 97.6452C104.986 97.9861 104.87 98.3271 104.725 98.6681C104.581 99.009 104.378 99.3926 104.117 99.8188C103.856 100.217 103.523 100.685 103.117 101.225C102.711 101.765 102.19 102.419 101.552 103.186L73.6025 136.644H96.7274C97.1331 136.644 97.4084 136.786 97.5533 137.07C97.7271 137.354 97.8141 137.78 97.8141 138.349C97.8141 138.576 97.7996 138.917 97.7706 139.371C97.7416 139.798 97.6692 140.295 97.5533 140.863C97.4663 141.403 97.3504 141.957 97.2055 142.525C97.0606 143.065 96.8867 143.577 96.6839 144.06C96.481 144.514 96.2202 144.898 95.9015 145.211C95.6117 145.495 95.2929 145.637 94.9452 145.637H61.7793C60.7361 145.637 59.9826 145.381 59.519 144.87C59.0263 144.358 58.78 143.719 58.78 142.952C58.78 142.724 58.809 142.412 58.867 142.014C58.8959 141.588 58.9684 141.162 59.0843 140.735C59.1712 140.281 59.2727 139.84 59.3886 139.414C59.4755 138.959 59.5624 138.59 59.6494 138.306C59.7653 137.993 59.8957 137.681 60.0406 137.368C60.1855 137.056 60.3883 136.7 60.6491 136.303C60.9389 135.905 61.2867 135.436 61.6924 134.896C62.0981 134.356 62.6197 133.703 63.2572 132.936L91.3374 99.3926H70.212C69.2847 99.3926 68.8211 98.7817 68.8211 97.5599C68.8211 97.3894 68.8356 97.0911 68.8645 96.6649C68.9225 96.2102 68.9949 95.7272 69.0819 95.2157C69.1688 94.6759 69.2847 94.136 69.4296 93.5961C69.6035 93.0278 69.8063 92.5164 70.0382 92.0618C70.27 91.6071 70.5453 91.2378 70.8641 90.9536C71.2118 90.6411 71.603 90.4848 72.0377 90.4848H103.248Z" fill="#231F20"></path><path d="M148.454 92.1044C148.454 92.2749 148.425 92.5732 148.367 92.9994C148.338 93.4256 148.28 93.9087 148.193 94.4486C148.106 94.96 147.99 95.4999 147.845 96.0682C147.701 96.6365 147.512 97.1621 147.28 97.6452C147.078 98.0998 146.817 98.4834 146.498 98.7959C146.208 99.1085 145.889 99.2648 145.542 99.2648H125.46L122.678 112.733H139.717C140.123 112.733 140.412 112.875 140.586 113.159C140.76 113.443 140.847 113.841 140.847 114.353C140.847 114.552 140.818 114.864 140.76 115.29C140.731 115.688 140.673 116.157 140.586 116.697C140.499 117.208 140.383 117.734 140.239 118.274C140.094 118.814 139.905 119.311 139.673 119.766C139.471 120.22 139.224 120.59 138.935 120.874C138.645 121.158 138.326 121.3 137.978 121.3H120.982L117.766 136.857H138.109C138.456 136.857 138.717 137.013 138.891 137.326C139.065 137.61 139.152 138.036 139.152 138.604C139.152 138.803 139.137 139.116 139.108 139.542C139.079 139.968 139.007 140.451 138.891 140.991C138.804 141.502 138.688 142.028 138.543 142.568C138.398 143.108 138.21 143.619 137.978 144.102C137.775 144.557 137.529 144.926 137.239 145.211C136.95 145.495 136.616 145.637 136.24 145.637H107.986C107.522 145.637 107.102 145.58 106.725 145.466C106.348 145.324 106.029 145.111 105.769 144.827C105.537 144.514 105.377 144.145 105.291 143.719C105.204 143.264 105.218 142.724 105.334 142.099L115.158 94.0223C115.418 92.7721 115.94 91.8771 116.723 91.3372C117.505 90.7689 118.374 90.4848 119.331 90.4848H147.324C148.077 90.4848 148.454 91.0246 148.454 92.1044Z" fill="#231F20"></path><path d="M213.96 144.145C213.873 144.429 213.743 144.685 213.569 144.912C213.395 145.14 213.091 145.324 212.656 145.466C212.25 145.608 211.685 145.708 210.961 145.765C210.236 145.85 209.338 145.892 208.266 145.892C207.135 145.892 206.223 145.85 205.527 145.765C204.832 145.708 204.296 145.608 203.919 145.466C203.542 145.324 203.296 145.14 203.18 144.912C203.093 144.685 203.078 144.429 203.136 144.145L212.265 99.2648H212.178L186.662 144.102C186.314 144.813 185.633 145.296 184.619 145.552C183.634 145.779 182.228 145.892 180.403 145.892C178.519 145.892 177.157 145.736 176.317 145.424C175.505 145.083 175.085 144.671 175.056 144.188L168.449 99.2221H168.362L159.191 144.145C159.133 144.429 159.002 144.685 158.799 144.912C158.625 145.14 158.321 145.324 157.886 145.466C157.481 145.608 156.916 145.708 156.191 145.765C155.496 145.85 154.597 145.892 153.496 145.892C152.395 145.892 151.497 145.85 150.801 145.765C150.106 145.708 149.57 145.608 149.193 145.466C148.816 145.324 148.57 145.14 148.454 144.912C148.338 144.685 148.324 144.429 148.411 144.145L158.408 95.0026C158.553 94.2923 158.77 93.653 159.06 93.0847C159.379 92.5164 159.756 92.0476 160.19 91.6782C160.654 91.2804 161.176 90.982 161.755 90.7831C162.335 90.5842 162.958 90.4848 163.624 90.4848H170.753C172.028 90.4848 173.115 90.5984 174.013 90.8257C174.911 91.0246 175.65 91.3798 176.23 91.8913C176.809 92.4027 177.244 93.0705 177.534 93.8945C177.853 94.7185 178.07 95.713 178.186 96.878L183.619 129.696H183.837L203.136 96.878C203.716 95.7698 204.296 94.8179 204.875 94.0223C205.455 93.1983 206.092 92.5306 206.788 92.0191C207.512 91.4793 208.309 91.0957 209.178 90.8684C210.048 90.6126 211.076 90.4848 212.265 90.4848H220.35C221.074 90.4848 221.697 90.5842 222.219 90.7831C222.74 90.982 223.146 91.2804 223.436 91.6782C223.755 92.0476 223.943 92.5164 224.001 93.0847C224.088 93.6245 224.073 94.2497 223.957 94.96L213.96 144.145Z" fill="#231F20"></path><path d="M268.077 92.2749C268.077 92.4454 268.048 92.7579 267.99 93.2125C267.961 93.6388 267.889 94.1218 267.773 94.6617C267.686 95.2015 267.57 95.7698 267.425 96.3665C267.28 96.9348 267.092 97.4747 266.86 97.9861C266.657 98.4692 266.411 98.867 266.121 99.1795C265.831 99.4921 265.498 99.6484 265.121 99.6484H246.735L243.692 114.481H260.992C261.398 114.481 261.687 114.637 261.861 114.949C262.035 115.262 262.122 115.674 262.122 116.185C262.122 116.384 262.093 116.711 262.035 117.166C261.977 117.592 261.89 118.075 261.774 118.615C261.687 119.126 261.557 119.68 261.383 120.277C261.238 120.845 261.05 121.371 260.818 121.854C260.615 122.309 260.369 122.692 260.079 123.005C259.789 123.317 259.456 123.474 259.079 123.474H241.91L237.737 144.06C237.679 144.372 237.534 144.642 237.302 144.87C237.07 145.097 236.708 145.282 236.215 145.424C235.752 145.566 235.143 145.679 234.39 145.765C233.636 145.85 232.709 145.892 231.608 145.892C230.478 145.892 229.55 145.85 228.826 145.765C228.13 145.679 227.58 145.566 227.174 145.424C226.768 145.282 226.493 145.097 226.348 144.87C226.203 144.642 226.174 144.372 226.261 144.06L236.433 94.0223C236.693 92.7721 237.215 91.8771 237.998 91.3372C238.78 90.7689 239.649 90.4848 240.606 90.4848H266.947C267.44 90.4848 267.744 90.6411 267.86 90.9536C268.005 91.2662 268.077 91.7066 268.077 92.2749Z" fill="#231F20"></path><path d="M293.723 124.71L289.811 144.145C289.724 144.429 289.565 144.685 289.333 144.912C289.101 145.14 288.739 145.324 288.246 145.466C287.783 145.608 287.174 145.708 286.421 145.765C285.667 145.85 284.74 145.892 283.639 145.892C282.537 145.892 281.625 145.85 280.9 145.765C280.176 145.708 279.611 145.608 279.205 145.466C278.828 145.324 278.567 145.14 278.423 144.912C278.307 144.685 278.278 144.429 278.336 144.145L282.248 124.71L273.033 94.6617C272.714 93.6672 272.511 92.8716 272.424 92.2749C272.366 91.6782 272.511 91.2378 272.859 90.9536C273.206 90.6411 273.815 90.4422 274.684 90.3569C275.554 90.2717 276.785 90.229 278.379 90.229C279.596 90.229 280.552 90.2575 281.248 90.3143C281.972 90.3427 282.537 90.4279 282.943 90.57C283.349 90.7121 283.624 90.9252 283.769 91.2093C283.943 91.4651 284.088 91.806 284.204 92.2323L287.985 105.487C288.42 107.079 288.797 108.599 289.116 110.048C289.463 111.469 289.768 112.96 290.028 114.523H290.115C290.927 112.989 291.767 111.483 292.636 110.005C293.506 108.528 294.433 107.05 295.418 105.573L304.416 92.1044C304.648 91.735 304.894 91.4367 305.155 91.2093C305.416 90.9536 305.778 90.7547 306.242 90.6126C306.706 90.4706 307.314 90.3711 308.068 90.3143C308.85 90.2575 309.893 90.229 311.197 90.229C312.878 90.229 314.153 90.2859 315.022 90.3995C315.921 90.4848 316.5 90.6979 316.761 91.0389C317.051 91.3514 317.036 91.806 316.718 92.4027C316.428 92.971 315.95 93.724 315.283 94.6617L293.723 124.71Z" fill="#231F20"></path><path d="M360.272 102.504C360.272 104.322 360.011 106.127 359.49 107.917C358.997 109.707 358.2 111.398 357.099 112.989C355.998 114.58 354.563 116.015 352.796 117.294C351.057 118.572 348.927 119.595 346.406 120.362C347.797 120.902 348.956 121.982 349.883 123.602C350.84 125.193 351.622 127.381 352.231 130.165L354.535 141.375C354.65 142 354.737 142.568 354.795 143.079C354.882 143.563 354.926 143.975 354.926 144.315C354.926 144.6 354.824 144.841 354.621 145.04C354.448 145.239 354.114 145.409 353.622 145.552C353.129 145.665 352.448 145.75 351.579 145.807C350.738 145.864 349.666 145.892 348.362 145.892C347.145 145.892 346.16 145.85 345.406 145.765C344.682 145.708 344.117 145.608 343.711 145.466C343.305 145.296 343.03 145.083 342.885 144.827C342.769 144.571 342.682 144.273 342.624 143.932L340.451 131.7C340.219 130.279 339.9 129.029 339.495 127.949C339.118 126.869 338.625 125.974 338.017 125.264C337.408 124.525 336.655 123.985 335.756 123.644C334.887 123.275 333.844 123.09 332.627 123.09H329.062L324.759 144.145C324.701 144.429 324.556 144.685 324.324 144.912C324.093 145.14 323.73 145.324 323.238 145.466C322.774 145.608 322.166 145.708 321.412 145.765C320.659 145.85 319.731 145.892 318.63 145.892C317.529 145.892 316.616 145.85 315.892 145.765C315.196 145.708 314.646 145.608 314.24 145.466C313.834 145.324 313.559 145.154 313.414 144.955C313.269 144.727 313.24 144.458 313.327 144.145L323.586 94.0223C323.817 92.7721 324.324 91.8771 325.107 91.3372C325.918 90.7689 326.846 90.4848 327.889 90.4848H342.972C345.609 90.4848 347.985 90.7263 350.101 91.2093C352.245 91.6924 354.071 92.4312 355.578 93.4256C357.085 94.4201 358.244 95.6704 359.055 97.1763C359.867 98.6823 360.272 100.458 360.272 102.504ZM348.014 104.592C348.014 103.797 347.869 103.058 347.58 102.376C347.319 101.694 346.884 101.112 346.276 100.629C345.667 100.117 344.87 99.7336 343.885 99.4779C342.929 99.1937 341.769 99.0517 340.408 99.0517H333.931L330.758 114.694H336.191C338.365 114.694 340.205 114.395 341.712 113.799C343.218 113.174 344.436 112.378 345.363 111.412C346.29 110.446 346.957 109.38 347.362 108.215C347.797 107.022 348.014 105.814 348.014 104.592Z" fill="#231F20"></path><path d="M407 92.1044C407 92.2749 406.971 92.5732 406.913 92.9994C406.884 93.4256 406.826 93.9087 406.739 94.4486C406.652 94.96 406.536 95.4999 406.392 96.0682C406.247 96.6365 406.058 97.1621 405.826 97.6452C405.624 98.0998 405.363 98.4834 405.044 98.7959C404.754 99.1085 404.435 99.2648 404.088 99.2648H384.006L381.224 112.733H398.263C398.669 112.733 398.959 112.875 399.132 113.159C399.306 113.443 399.393 113.841 399.393 114.353C399.393 114.552 399.364 114.864 399.306 115.29C399.277 115.688 399.219 116.157 399.132 116.697C399.045 117.208 398.93 117.734 398.785 118.274C398.64 118.814 398.451 119.311 398.22 119.766C398.017 120.22 397.77 120.59 397.481 120.874C397.191 121.158 396.872 121.3 396.524 121.3H379.528L376.312 136.857H396.655C397.002 136.857 397.263 137.013 397.437 137.326C397.611 137.61 397.698 138.036 397.698 138.604C397.698 138.803 397.684 139.116 397.655 139.542C397.626 139.968 397.553 140.451 397.437 140.991C397.35 141.502 397.234 142.028 397.089 142.568C396.945 143.108 396.756 143.619 396.524 144.102C396.322 144.557 396.075 144.926 395.785 145.211C395.496 145.495 395.162 145.637 394.786 145.637H366.532C366.068 145.637 365.648 145.58 365.271 145.466C364.894 145.324 364.576 145.111 364.315 144.827C364.083 144.514 363.924 144.145 363.837 143.719C363.75 143.264 363.764 142.724 363.88 142.099L373.704 94.0223C373.965 92.7721 374.486 91.8771 375.269 91.3372C376.051 90.7689 376.92 90.4848 377.877 90.4848H405.87C406.623 90.4848 407 91.0246 407 92.1044Z" fill="#231F20"></path></svg>